<?xml version="1.0" encoding="utf-8"?>
<!-- Generator: Adobe Illustrator 16.0.0, SVG Export Plug-In . SVG Version: 6.00 Build 0)  -->
<!DOCTYPE svg PUBLIC "-//W3C//DTD SVG 1.1//EN" "http://www.w3.org/Graphics/SVG/1.1/DTD/svg11.dtd">
<svg version="1.1" id="_x31_" xmlns="http://www.w3.org/2000/svg" xmlns:xlink="http://www.w3.org/1999/xlink" x="0px" y="0px"
	 width="394.34px" height="95.002px" viewBox="0 0 394.34 95.002" enable-background="new 0 0 394.34 95.002" xml:space="preserve">
<rect y="9.25" fill="#33FF99" width="19" height="15"/>
<rect y="26.25" fill="#33FF99" width="19" height="58.167"/>
<rect y="85.5" fill="#33FF99" width="19" height="2.25"/>
<rect y="89.166" fill="#33FF99" width="19" height="5.836"/>
<path fill="#FFFFFF" d="M17,78.167c0,1.979-1.604,3.584-3.583,3.584H5.583C3.604,81.75,2,80.145,2,78.167l0,0
	c0-1.979,1.604-3.582,3.583-3.582h7.834C15.396,74.583,17,76.188,17,78.167L17,78.167z"/>
<rect x="22.167" fill="#FF66CC" width="22.416" height="12.092"/>
<rect x="22.167" y="14.491" fill="#FF66CC" width="22.416" height="69.76"/>
<rect x="22.167" y="85.548" fill="#FF66CC" width="22.416" height="2.699"/>
<rect x="22.167" y="89.947" fill="#FF66CC" width="22.416" height="4.949"/>
<rect x="46.59" y="23.038" transform="matrix(0.9037 -0.4282 0.4282 0.9037 -7.3858 26.3577)" fill="#FFCC33" width="16.617" height="13.118"/>
<rect x="61.035" y="34.665" transform="matrix(0.9038 -0.428 0.428 0.9038 -19.0512 35.4642)" fill="#FFCC33" width="16.617" height="50.869"/>
<rect x="72.749" y="83.849" transform="matrix(0.9038 -0.428 0.428 0.9038 -28.508 42.852)" fill="#FFCC33" width="16.616" height="1.968"/>
<rect x="74.796" y="86.584" transform="matrix(0.9037 -0.4281 0.4281 0.9037 -30.1609 44.1626)" fill="#FFCC33" width="16.614" height="5.103"/>
<path fill="#FFFFFF" d="M83.82,75.333c0.742,1.563,0.074,3.43-1.489,4.172l-6.19,2.935c-1.565,0.74-3.435,0.071-4.175-1.49l0,0
	c-0.741-1.564-0.073-3.434,1.491-4.173l6.191-2.934C81.211,73.1,83.08,73.768,83.82,75.333L83.82,75.333z"/>
<path fill="#FFFFFF" d="M99.078,91.894L73.13,38.157l9.537-4.605l21.856,45.265l24.283-11.728l4.09,8.476L99.078,91.894z"/>
<path fill="#FFFFFF" d="M157.6,83.186c-0.754,1.239-2.064,2.254-3.936,3.038c-1.871,0.785-3.824,1.18-5.859,1.18
	c-3.83,0-6.841-0.957-9.031-2.872c-2.191-1.914-3.287-4.632-3.287-8.15c0-4.117,1.543-7.338,4.632-9.662
	c3.088-2.324,7.476-3.485,13.165-3.485c0.974,0,2.125,0.166,3.453,0.498c0-4.185-2.646-6.275-7.937-6.275
	c-3.12,0-5.733,0.521-7.836,1.562l-1.793-6.439c2.854-1.373,6.253-2.061,10.192-2.061c5.424,0,9.396,1.234,11.921,3.702
	c2.522,2.47,3.784,7.146,3.784,14.027v7.604c0,4.737,0.953,7.716,2.855,8.934c-0.688,1.193-1.449,1.932-2.291,2.207
	c-0.841,0.275-1.804,0.416-2.889,0.416c-1.195,0-2.27-0.443-3.221-1.328C158.573,85.19,157.932,84.227,157.6,83.186z
	 M156.802,70.003c-1.417-0.287-2.479-0.432-3.188-0.432c-6.551,0-9.827,2.146-9.827,6.44c0,3.188,1.848,4.781,5.545,4.781
	c4.979,0,7.471-2.49,7.471-7.471V70.003L156.802,70.003z"/>
<path fill="#FFFFFF" d="M201.924,54l-3.553,6.209c-1.948-1.836-4.561-2.756-7.835-2.756c-3.144,0-5.628,1.047-7.454,3.139
	s-2.739,4.986-2.739,8.684c0,7.46,3.554,11.188,10.658,11.188c3.076,0,5.788-1.018,8.136-3.055l3.055,6.541
	c-2.414,1.506-4.521,2.457-6.325,2.854c-1.804,0.398-3.935,0.599-6.392,0.599c-5.49,0-9.824-1.601-13-4.799
	c-3.177-3.197-4.765-7.642-4.765-13.33c0-5.601,1.737-10.127,5.213-13.58s8.212-5.181,14.211-5.181
	C195.273,50.514,198.872,51.676,201.924,54z"/>
<path fill="#FFFFFF" d="M228.622,83.186c-0.754,1.239-2.063,2.254-3.937,3.038c-1.871,0.785-3.824,1.18-5.858,1.18
	c-3.83,0-6.841-0.957-9.031-2.872c-2.19-1.914-3.287-4.632-3.287-8.15c0-4.117,1.543-7.338,4.632-9.662
	c3.088-2.324,7.477-3.485,13.166-3.485c0.973,0,2.125,0.166,3.452,0.498c0-4.185-2.646-6.275-7.937-6.275
	c-3.12,0-5.733,0.521-7.836,1.562l-1.793-6.439c2.854-1.373,6.252-2.061,10.191-2.061c5.424,0,9.396,1.234,11.922,3.702
	c2.521,2.47,3.783,7.146,3.783,14.027v7.604c0,4.737,0.951,7.716,2.855,8.934c-0.688,1.193-1.449,1.932-2.291,2.207
	s-1.805,0.416-2.889,0.416c-1.195,0-2.271-0.443-3.222-1.328C229.594,85.19,228.954,84.227,228.622,83.186z M227.825,70.003
	c-1.418-0.287-2.479-0.432-3.188-0.432c-6.554,0-9.828,2.146-9.828,6.44c0,3.188,1.85,4.781,5.545,4.781
	c4.979,0,7.473-2.49,7.473-7.471L227.825,70.003L227.825,70.003z"/>
<path fill="#FFFFFF" d="M267.934,86.74V66.186c0-3.031-0.582-5.245-1.744-6.642c-1.162-1.395-3.061-2.092-5.692-2.092
	c-1.22,0-2.521,0.344-3.901,1.029c-1.384,0.688-2.464,1.538-3.236,2.557v25.699h-8.301V51.177h5.977l1.527,3.32
	c2.258-2.656,5.588-3.983,9.994-3.983c4.229,0,7.563,1.269,10.01,3.803c2.444,2.534,3.67,6.07,3.67,10.606v21.814h-8.303V86.74
	L267.934,86.74z"/>
<path fill="#FFFFFF" d="M308.077,86.74v-2.158c-0.688,0.752-1.851,1.41-3.486,1.976c-1.639,0.563-3.332,0.848-5.079,0.848
	c-4.96,0-8.861-1.57-11.705-4.715c-2.845-3.144-4.267-7.525-4.267-13.148c0-5.621,1.631-10.197,4.896-13.729
	c3.267-3.529,7.354-5.297,12.271-5.297c2.698,0,5.155,0.555,7.371,1.659V37.93l8.301-1.991V86.74H308.077z M308.077,59.677
	c-1.771-1.415-3.619-2.125-5.546-2.125c-3.319,0-5.877,1.015-7.67,3.039c-1.793,2.025-2.688,4.932-2.688,8.716
	c0,7.395,3.563,11.091,10.69,11.091c0.798,0,1.775-0.237,2.938-0.715c1.162-0.477,1.92-0.957,2.273-1.442V59.677H308.077z"/>
<path fill="#FFFFFF" d="M322.352,68.875c0-5.422,1.566-9.838,4.699-13.248c3.131-3.408,7.267-5.112,12.4-5.112
	c5.399,0,9.596,1.64,12.584,4.913c2.988,3.277,4.481,7.761,4.481,13.447c0,5.668-1.521,10.172-4.563,13.515
	c-3.045,3.344-7.211,5.015-12.502,5.015c-5.4,0-9.603-1.688-12.603-5.063C323.852,78.964,322.352,74.476,322.352,68.875z
	 M330.987,68.875c0,7.836,2.819,11.754,8.467,11.754c2.59,0,4.643-1.018,6.158-3.055c1.516-2.035,2.272-4.937,2.272-8.699
	c0-7.725-2.811-11.588-8.434-11.588c-2.59,0-4.648,1.02-6.176,3.055C331.75,62.378,330.987,65.223,330.987,68.875z"/>
<path fill="#FFFFFF" d="M386.038,86.74V66.186c0-3.031-0.582-5.245-1.744-6.642c-1.162-1.395-3.061-2.092-5.693-2.092
	c-1.219,0-2.52,0.344-3.899,1.029c-1.385,0.688-2.463,1.538-3.238,2.557v25.699h-8.301V51.177h5.977l1.527,3.32
	c2.258-2.656,5.59-3.983,9.994-3.983c4.229,0,7.563,1.269,10.012,3.803c2.445,2.534,3.668,6.07,3.668,10.606v21.814h-8.301
	L386.038,86.74L386.038,86.74z"/>
<path fill="#FF3333" d="M101.518,27.044l-2.112,7.613h-6.953l9.065-29.66h8.801l9.197,29.66h-7.217l-2.289-7.613H101.518z
	 M109.042,22.027l-1.848-6.293c-0.528-1.76-1.056-3.961-1.496-5.721h-0.088c-0.44,1.76-0.88,4.005-1.364,5.721l-1.76,6.293H109.042z
	"/>
<path fill="#FF3333" d="M123.472,5.393c2.464-0.396,5.677-0.615,9.065-0.615c5.633,0,9.285,1.012,12.146,3.168
	c3.081,2.288,5.017,5.941,5.017,11.178c0,5.677-2.068,9.594-4.929,12.014c-3.125,2.597-7.877,3.828-13.686,3.828
	c-3.477,0-5.941-0.22-7.613-0.439V5.393z M130.205,29.597c0.572,0.132,1.497,0.132,2.333,0.132
	c6.073,0.044,10.033-3.301,10.033-10.386c0.044-6.161-3.564-9.417-9.329-9.417c-1.496,0-2.464,0.132-3.037,0.264V29.597z"/>
<path fill="#FF3333" d="M179.18,23.304c-0.132-3.564-0.264-7.877-0.264-12.189h-0.132c-0.924,3.784-2.156,8.009-3.3,11.485
	l-3.608,11.573h-5.237l-3.168-11.485c-0.968-3.477-1.98-7.701-2.685-11.573h-0.088c-0.176,4.004-0.308,8.581-0.528,12.277
	l-0.528,11.266h-6.205l1.893-29.66h8.933l2.904,9.901c0.924,3.433,1.849,7.129,2.508,10.605h0.132
	c0.836-3.433,1.848-7.349,2.816-10.649l3.168-9.857h8.757l1.629,29.66h-6.557L179.18,23.304z"/>
<path fill="#FF3333" d="M198.053,4.997v29.66h-6.733V4.997H198.053z"/>
<path fill="#FF3333" d="M203.859,34.657V4.997h7.832l6.162,10.869c1.76,3.125,3.52,6.821,4.84,10.166h0.133
	c-0.441-3.917-0.572-7.921-0.572-12.366V4.997h6.16v29.66h-7.041l-6.336-11.441c-1.762-3.169-3.697-6.997-5.148-10.474l-0.133,0.044
	c0.176,3.917,0.264,8.097,0.264,12.938v8.934H203.859z"/>
</svg>
