<?xml version="1.0" encoding="utf-8"?>
<!-- Generator: Adobe Illustrator 16.0.0, SVG Export Plug-In . SVG Version: 6.00 Build 0)  -->
<!DOCTYPE svg PUBLIC "-//W3C//DTD SVG 1.1//EN" "http://www.w3.org/Graphics/SVG/1.1/DTD/svg11.dtd">
<svg version="1.1" id="Layer_1" xmlns="http://www.w3.org/2000/svg" xmlns:xlink="http://www.w3.org/1999/xlink" x="0px" y="0px"
	 width="501.695px" height="388.688px" viewBox="0 0 501.695 388.688" enable-background="new 0 0 501.695 388.688"
	 xml:space="preserve">
<g>
	<path fill="#FFFFFF" d="M501.693,324.643c-2.298,7.417-3.671,15.287-7.052,22.174c-12.805,26.076-33.979,40.865-63.153,41.424
		c-41.785,0.799-83.599,0.284-125.398,0.279c-41.31-0.008-82.628,0.333-123.93-0.248c-34.466-0.484-65.597-28.207-68.024-62.567
		c-1.995-28.241-0.407-56.735-0.407-84.772c2.366-1.626,4.931-3.131,7.2-4.992c8.261-6.774,20.248-6.531,28.306,0.535
		c1.828,1.604,4.119,2.677,7.292,4.691c0,0.433-0.002,2.166,0,3.898c0.021,22.696,0.518,45.406-0.086,68.087
		c-0.52,19.608,13.919,32.326,32.423,32.237c79.03-0.389,158.061-0.159,237.09-0.169c20.601-0.002,32.424-11.868,32.428-32.58
		c0.015-78.867,0.015-157.734,0-236.6c-0.004-20.734-11.816-32.614-32.403-32.615c-79.355-0.011-158.711-0.016-238.069,0.005
		c-15.815,0.003-27.019,8.145-30.473,22.335c-0.798,3.275-0.831,6.791-0.842,10.196c-0.066,23.995-0.034,47.987-0.034,71.155
		c-3.09,2.215-5.686,3.942-8.132,5.857c-8.13,6.375-19.66,6.187-27.583-0.38c-2.108-1.746-4.537-3.106-6.913-4.707
		c0-28.386-2.211-57.622,0.564-86.377c3.418-35.455,33.844-60.777,69.625-61.21c44.407-0.539,88.827-0.185,133.24-0.175
		c38.372,0.009,76.749-0.34,115.113,0.241c33.854,0.512,63.23,27.086,68.247,60.469c0.163,1.078,0.642,2.11,0.973,3.165
		C501.693,150.88,501.693,237.762,501.693,324.643z"/>
	<path fill="#FFFFFF" d="M0,189.421c0.393-0.659,0.881-1.279,1.164-1.982c3.884-9.693,10.951-14.684,21.467-14.736
		c18.941-0.092,37.885-0.029,56.828-0.029c73.974,0,147.948,0,221.922,0c1.908,0,3.819,0,6.867,0
		c-1.849-2.027-2.942-3.324-4.134-4.519c-12.233-12.248-24.64-24.326-36.68-36.759c-12.03-12.423-7.767-31.382,7.98-36.429
		c7.164-2.295,13.867-1.12,19.884,3.429c1.557,1.175,2.954,2.576,4.339,3.956c24.836,24.816,49.669,49.636,74.479,74.476
		c11.46,11.472,11.451,23.55-0.032,35.043c-25.159,25.185-50.285,50.404-75.539,75.496c-11.898,11.822-29.687,9.027-36.19-5.461
		c-3.9-8.687-1.959-17.622,5.759-25.411c11.837-11.947,23.757-23.816,35.686-35.675c1.265-1.258,4.852-4.85,4.852-4.85l-1.285-0.025
		c-1.831,0-3.66,0-5.491,0c-91.121,0-182.241-0.176-273.361,0.188c-13.611,0.053-23.458-3.756-28.511-16.918
		C0,195.954,0,192.688,0,189.421z"/>
</g>
</svg>
