<?xml version="1.0" encoding="utf-8"?>
<!-- Generator: Adobe Illustrator 16.0.0, SVG Export Plug-In . SVG Version: 6.00 Build 0)  -->
<!DOCTYPE svg PUBLIC "-//W3C//DTD SVG 1.1//EN" "http://www.w3.org/Graphics/SVG/1.1/DTD/svg11.dtd">
<svg version="1.1" id="Layer_2" xmlns="http://www.w3.org/2000/svg" xmlns:xlink="http://www.w3.org/1999/xlink" x="0px" y="0px"
	 width="394.336px" height="102.917px" viewBox="0 0 394.336 102.917" enable-background="new 0 0 394.336 102.917"
	 xml:space="preserve">
<rect y="9.25" fill="#F4A800" width="19" height="15"/>
<rect y="26.25" fill="#F4A800" width="19" height="58.167"/>
<rect y="85.5" fill="#F4A800" width="19" height="2.25"/>
<rect y="89.166" fill="#F4A800" width="19" height="5.836"/>
<path fill="#FFFFFF" d="M17,78.167c0,1.979-1.604,3.584-3.583,3.584H5.583C3.604,81.75,2,80.145,2,78.167l0,0
	c0-1.979,1.604-3.582,3.583-3.582h7.834C15.396,74.583,17,76.188,17,78.167L17,78.167z"/>
<rect x="22.167" fill="#F20040" width="22.416" height="12.092"/>
<rect x="22.167" y="14.491" fill="#F20040" width="22.416" height="69.76"/>
<rect x="22.167" y="85.548" fill="#F20040" width="22.416" height="2.699"/>
<rect x="22.167" y="89.947" fill="#F20040" width="22.416" height="4.949"/>
<rect x="46.592" y="23.038" transform="matrix(-0.9037 0.4282 -0.4282 -0.9037 117.1861 32.8358)" fill="#72C10A" width="16.617" height="13.118"/>
<rect x="61.038" y="34.666" transform="matrix(-0.9038 0.428 -0.428 -0.9038 157.7408 84.7383)" fill="#72C10A" width="16.616" height="50.868"/>
<rect x="72.752" y="83.847" transform="matrix(-0.9038 0.428 -0.428 -0.9038 190.6267 126.8099)" fill="#72C10A" width="16.616" height="1.969"/>
<rect x="74.793" y="86.584" transform="matrix(-0.9037 0.4281 -0.4281 -0.9037 196.3606 134.1132)" fill="#72C10A" width="16.615" height="5.104"/>
<path fill="#FFFFFF" d="M83.82,75.333c0.742,1.563,0.075,3.43-1.489,4.172l-6.191,2.934c-1.565,0.741-3.434,0.072-4.174-1.49l0,0
	c-0.741-1.564-0.073-3.433,1.491-4.173l6.191-2.933C81.211,73.1,83.08,73.768,83.82,75.333L83.82,75.333z"/>
<path fill="#CC0033" d="M109.792,43.696c-4.412,0-8.007-1.436-10.785-4.308c-2.779-2.872-4.168-6.613-4.168-11.226
	c0-4.87,1.411-8.809,4.232-11.816c2.821-3.008,6.56-4.512,11.215-4.512c4.397,0,7.953,1.439,10.667,4.318
	c2.714,2.879,4.071,6.675,4.071,11.387c0,4.841-1.407,8.744-4.222,11.709C117.987,42.213,114.318,43.696,109.792,43.696z
	 M110.093,17.807c-2.435,0-4.369,0.913-5.801,2.739c-1.433,1.826-2.148,4.243-2.148,7.251c0,3.051,0.716,5.464,2.148,7.24
	c1.432,1.776,3.309,2.664,5.629,2.664c2.392,0,4.29-0.863,5.693-2.589c1.403-1.726,2.105-4.121,2.105-7.187
	c0-3.194-0.681-5.679-2.041-7.455C114.318,18.695,112.457,17.807,110.093,17.807z"/>
<path fill="#CC0033" d="M137.078,32.545v10.613h-6.939V12.35h10.871c7.763,0,11.645,3.273,11.645,9.818
	c0,3.094-1.114,5.597-3.341,7.509c-2.228,1.912-5.203,2.868-8.927,2.868H137.078z M137.078,17.678v9.604h2.729
	c3.695,0,5.543-1.618,5.543-4.855c0-3.165-1.848-4.748-5.543-4.748h-2.729V17.678z"/>
<path fill="#CC0033" d="M175.642,43.159h-18.477V12.35h17.768V18h-10.828v6.854h10.076v5.629h-10.076v7.047h11.537V43.159z"/>
<path fill="#CC0033" d="M208.297,43.159h-7.004l-12.696-19.357c-0.745-1.131-1.261-1.983-1.547-2.557h-0.086
	c0.114,1.089,0.172,2.75,0.172,4.984v16.93h-6.553V12.35h7.477l12.226,18.756c0.559,0.845,1.073,1.683,1.547,2.514h0.086
	c-0.115-0.716-0.172-2.127-0.172-4.232V12.35h6.553v30.809H208.297z"/>
<path fill="#FFFFFF" d="M99.078,91.894L73.13,38.157l9.537-4.605l21.856,45.264l24.283-11.727l4.091,8.475L99.078,91.894z"/>
<path fill="#FFFFFF" d="M157.599,83.186c-0.753,1.239-2.064,2.253-3.935,3.038s-3.824,1.179-5.86,1.179
	c-3.83,0-6.84-0.957-9.031-2.872c-2.191-1.914-3.287-4.632-3.287-8.15c0-4.117,1.544-7.338,4.632-9.662
	c3.088-2.324,7.476-3.486,13.165-3.486c0.974,0,2.125,0.166,3.453,0.498c0-4.184-2.646-6.275-7.936-6.275
	c-3.121,0-5.733,0.521-7.836,1.562l-1.793-6.44c2.855-1.373,6.253-2.06,10.193-2.06c5.423,0,9.396,1.234,11.92,3.702
	c2.523,2.469,3.785,7.145,3.785,14.027v7.604c0,4.737,0.952,7.715,2.855,8.933c-0.687,1.194-1.45,1.932-2.291,2.207
	c-0.841,0.276-1.804,0.416-2.889,0.416c-1.195,0-2.269-0.443-3.221-1.328C158.573,85.19,157.931,84.227,157.599,83.186z
	 M156.802,70.003c-1.417-0.287-2.479-0.432-3.188-0.432c-6.552,0-9.828,2.146-9.828,6.441c0,3.188,1.848,4.781,5.545,4.781
	c4.98,0,7.471-2.49,7.471-7.471V70.003L156.802,70.003z"/>
<path fill="#FFFFFF" d="M201.924,54l-3.553,6.209c-1.948-1.836-4.561-2.756-7.835-2.756c-3.144,0-5.628,1.047-7.454,3.139
	s-2.739,4.986-2.739,8.683c0,7.46,3.553,11.188,10.658,11.188c3.076,0,5.788-1.018,8.135-3.055l3.055,6.541
	c-2.413,1.506-4.521,2.457-6.325,2.855s-3.935,0.598-6.392,0.598c-5.49,0-9.823-1.6-12.999-4.798
	c-3.177-3.198-4.765-7.642-4.765-13.331c0-5.6,1.737-10.127,5.213-13.58c3.475-3.453,8.212-5.18,14.211-5.18
	C195.273,50.514,198.872,51.676,201.924,54z"/>
<path fill="#FFFFFF" d="M228.622,83.186c-0.754,1.239-2.064,2.253-3.936,3.038s-3.824,1.179-5.859,1.179
	c-3.83,0-6.841-0.957-9.031-2.872c-2.191-1.914-3.287-4.632-3.287-8.15c0-4.117,1.543-7.338,4.632-9.662
	c3.088-2.324,7.476-3.486,13.165-3.486c0.974,0,2.125,0.166,3.453,0.498c0-4.184-2.646-6.275-7.937-6.275
	c-3.12,0-5.733,0.521-7.836,1.562l-1.793-6.44c2.854-1.373,6.253-2.06,10.192-2.06c5.424,0,9.396,1.234,11.921,3.702
	c2.522,2.469,3.784,7.145,3.784,14.027v7.604c0,4.737,0.951,7.715,2.855,8.933c-0.688,1.194-1.449,1.932-2.291,2.207
	c-0.842,0.276-1.805,0.416-2.889,0.416c-1.195,0-2.27-0.443-3.221-1.328C229.594,85.19,228.954,84.227,228.622,83.186z
	 M227.825,70.003c-1.418-0.287-2.479-0.432-3.188-0.432c-6.554,0-9.828,2.146-9.828,6.441c0,3.188,1.849,4.781,5.545,4.781
	c4.979,0,7.472-2.49,7.472-7.471V70.003L227.825,70.003z"/>
<path fill="#FFFFFF" d="M267.933,86.74V66.186c0-3.032-0.581-5.246-1.743-6.642c-1.162-1.395-3.061-2.092-5.693-2.092
	c-1.219,0-2.52,0.344-3.901,1.029c-1.384,0.688-2.464,1.539-3.237,2.557v25.699h-8.301v-35.56h5.977l1.527,3.32
	c2.258-2.656,5.589-3.983,9.994-3.983c4.229,0,7.564,1.268,10.011,3.802c2.444,2.535,3.669,6.071,3.669,10.607v21.814h-8.302V86.74z
	"/>
<path fill="#FFFFFF" d="M308.077,86.74v-2.158c-0.688,0.752-1.85,1.41-3.486,1.976c-1.639,0.563-3.332,0.847-5.08,0.847
	c-4.959,0-8.86-1.57-11.704-4.715c-2.845-3.143-4.267-7.525-4.267-13.148c0-5.621,1.631-10.197,4.896-13.729
	c3.266-3.529,7.354-5.296,12.27-5.296c2.699,0,5.156,0.554,7.371,1.659V37.93l8.301-1.992V86.74H308.077z M308.077,59.677
	c-1.771-1.415-3.619-2.125-5.546-2.125c-3.319,0-5.877,1.014-7.67,3.039s-2.688,4.931-2.688,8.716c0,7.394,3.563,11.09,10.69,11.09
	c0.798,0,1.776-0.237,2.938-0.714s1.92-0.957,2.273-1.443V59.677H308.077z"/>
<path fill="#FFFFFF" d="M322.352,68.875c0-5.422,1.566-9.838,4.699-13.248c3.131-3.408,7.266-5.112,12.4-5.112
	c5.4,0,9.596,1.639,12.584,4.913c2.988,3.277,4.482,7.76,4.482,13.447c0,5.668-1.521,10.172-4.564,13.515
	c-3.045,3.343-7.211,5.014-12.502,5.014c-5.4,0-9.602-1.688-12.602-5.063C323.852,78.964,322.352,74.476,322.352,68.875z
	 M330.987,68.875c0,7.836,2.82,11.754,8.467,11.754c2.59,0,4.643-1.018,6.158-3.055c1.516-2.035,2.273-4.936,2.273-8.699
	c0-7.725-2.811-11.588-8.434-11.588c-2.59,0-4.648,1.02-6.176,3.055C331.75,62.378,330.987,65.223,330.987,68.875z"/>
<path fill="#FFFFFF" d="M386.038,86.74V66.186c0-3.032-0.582-5.246-1.744-6.642c-1.162-1.395-3.061-2.092-5.693-2.092
	c-1.219,0-2.52,0.344-3.9,1.029c-1.385,0.688-2.463,1.539-3.238,2.557v25.699h-8.301v-35.56h5.977l1.527,3.32
	c2.258-2.656,5.59-3.983,9.994-3.983c4.229,0,7.564,1.268,10.012,3.802c2.445,2.535,3.668,6.071,3.668,10.607v21.814h-8.301V86.74z"
	/>
</svg>
