<?xml version="1.0" encoding="UTF-8" standalone="no"?>
<!-- Created with Inkscape (http://www.inkscape.org/) -->

<svg
   width="85.460991mm"
   height="79.626038mm"
   viewBox="0 0 85.460992 79.626035"
   version="1.1"
   id="svg132"
   xmlns="http://www.w3.org/2000/svg"
   xmlns:svg="http://www.w3.org/2000/svg">
  <defs
     id="defs129" />
  <g
     id="layer1"
     transform="rotate(8.6782294,692.54008,-288.04445)">
    <path
       id="path542"
       style="color:#000000;fill:#000000;stroke-linecap:round;-inkscape-stroke:none"
       d="M 81.644198,96.791382 C 63.421933,101.68458 52.465873,120.68544 57.359057,138.9077 c 4.893183,18.22226 23.894099,29.18046 42.116591,24.28688 4.952412,-1.32987 9.367092,-3.7032 13.073982,-6.81856 l 18.94951,10.92646 c 4.78388,2.75767 10.89746,1.116 13.65642,-3.66712 2.75894,-4.78446 1.11685,-10.89959 -3.66767,-13.65843 l -17.97227,-10.36452 c 1.73501,-5.86352 1.93554,-12.24591 0.24653,-18.53579 C 118.86897,102.85436 99.866455,91.8982 81.644247,96.791296 Z m 5.186893,19.316038 c 7.78329,-2.09003 15.525489,2.37268 17.615289,10.15636 2.09003,7.78329 -2.37467,15.52602 -10.157957,17.61605 -7.783292,2.09004 -15.524031,-2.37519 -17.61429,-10.15809 -2.090029,-7.78329 2.373207,-15.52349 10.156498,-17.61352 z" />
  </g>
</svg>
