<?xml version="1.0" encoding="UTF-8" standalone="no"?>
<!-- Created with Inkscape (http://www.inkscape.org/) -->

<svg
   width="75.777321mm"
   height="53.033047mm"
   viewBox="0 0 75.777321 53.033047"
   version="1.1"
   id="svg5"
   inkscape:export-filename="shoppingCart.svg"
   inkscape:export-xdpi="96"
   inkscape:export-ydpi="96"
   xmlns:inkscape="http://www.inkscape.org/namespaces/inkscape"
   xmlns:sodipodi="http://sodipodi.sourceforge.net/DTD/sodipodi-0.dtd"
   xmlns="http://www.w3.org/2000/svg"
   xmlns:svg="http://www.w3.org/2000/svg">
  <sodipodi:namedview
     id="namedview7"
     pagecolor="#ffffff"
     bordercolor="#000000"
     borderopacity="0.25"
     inkscape:showpageshadow="2"
     inkscape:pageopacity="0.0"
     inkscape:pagecheckerboard="0"
     inkscape:deskcolor="#d1d1d1"
     inkscape:document-units="mm"
     showgrid="false" />
  <defs
     id="defs2" />
  <g
     inkscape:label="Layer 1"
     inkscape:groupmode="layer"
     id="layer1"
     transform="translate(-34.642578,-117.82422)">
    <path
       style="color:#000000;fill:#ffffff;stroke-linecap:square;stroke-linejoin:round;-inkscape-stroke:none"
       d="m 34.642578,117.82422 v 10 h 5 2.255859 l 14.5,25.11133 a 5.0005,5.0005 0 0 0 4.330079,2.5 h 33.964843 a 5.0005,5.0005 0 0 0 4.330078,-2.5 l 10.546873,-18.26758 a 5.0005,5.0005 0 0 0 0.66992,-2.39453 l 0.0742,-3.58594 0.10547,-4.99805 -9.99804,-0.21093 -0.10547,5 -0.0488,2.30078 -8.460939,14.65625 H 63.615234 L 49.117187,120.32422 a 5.0005,5.0005 0 0 0 -4.332031,-2.5 h -5.142578 z"
       id="path288" />
    <circle
       style="fill:#ffffff;stroke:none;stroke-width:10;stroke-linecap:square;stroke-linejoin:round;stroke-dasharray:none"
       id="path4691"
       cx="65.964615"
       cy="164.14883"
       r="6.7084327" />
    <circle
       style="fill:#ffffff;stroke:none;stroke-width:10;stroke-linecap:square;stroke-linejoin:round;stroke-dasharray:none"
       id="circle4815"
       cx="90.835472"
       cy="164.14883"
       r="6.7084327" />
  </g>
</svg>
