<?xml version="1.0" encoding="utf-8"?>
<!-- Generator: Adobe Illustrator 16.0.0, SVG Export Plug-In . SVG Version: 6.00 Build 0)  -->
<!DOCTYPE svg PUBLIC "-//W3C//DTD SVG 1.1//EN" "http://www.w3.org/Graphics/SVG/1.1/DTD/svg11.dtd">
<svg version="1.1" id="Layer_1" xmlns="http://www.w3.org/2000/svg" xmlns:xlink="http://www.w3.org/1999/xlink" x="0px" y="0px"
	 width="570.695px" height="480.001px" viewBox="0 0 570.695 480.001" enable-background="new 0 0 570.695 480.001"
	 xml:space="preserve">
<g transform="matrix(1,0,0,-1,197.42373,1300.6102)">
	<path fill="#FFFFFF" d="M307.924,901.547c0-25-7.604-44.738-22.813-59.219c-15.209-14.479-35.417-21.719-60.625-21.719H-48.639
		c-25.208,0-45.417,7.24-60.625,21.719c-15.208,14.48-22.813,34.219-22.813,59.219c0,11.043,0.365,21.824,1.094,32.344
		c0.729,10.521,2.188,21.875,4.375,34.063s4.948,23.49,8.281,33.906c3.333,10.418,7.813,20.574,13.438,30.47
		s12.083,18.333,19.375,25.313c7.292,6.979,16.198,12.552,26.719,16.719c10.521,4.167,22.135,6.25,34.844,6.25
		c1.875,0,6.25-2.24,13.125-6.719c6.875-4.479,14.635-9.479,23.282-15c8.646-5.521,19.896-10.521,33.75-15
		c13.854-4.479,27.76-6.719,41.719-6.719c13.958,0,27.864,2.239,41.719,6.719c13.854,4.479,25.104,9.479,33.75,15
		c8.646,5.521,16.406,10.521,23.281,15c6.875,4.479,11.25,6.719,13.125,6.719c12.708,0,24.322-2.083,34.844-6.25
		c10.521-4.167,19.427-9.74,26.719-16.719c7.291-6.979,13.75-15.417,19.375-25.313s10.104-20.052,13.438-30.47
		c3.333-10.416,6.094-21.719,8.281-33.906s3.646-23.541,4.375-34.063C307.559,923.371,307.924,912.59,307.924,901.547z
		 M207.924,1180.61c0-33.125-11.719-61.406-35.156-84.844s-51.719-35.156-84.844-35.156s-61.406,11.719-84.844,35.156
		c-23.438,23.438-35.157,51.719-35.157,84.844s11.719,61.406,35.157,84.844c23.438,23.438,51.719,35.156,84.844,35.156
		s61.406-11.719,84.844-35.156S207.924,1213.735,207.924,1180.61z"/>
</g>
</svg>
